<?xml version="1.0" encoding="utf-8" ?>
<svg xmlns="http://www.w3.org/2000/svg" xmlns:xlink="http://www.w3.org/1999/xlink" width="812" height="812">
	<path transform="scale(0.793204 0.793204)" d="M111.053 357.734C112.898 359.07 114.383 360.821 116.072 362.341C117.612 363.728 118.692 364.353 120.847 364.226C123.821 361.926 122.606 357.138 124.009 353.793C125.054 352.712 126.027 352.144 127.496 351.846C130.627 351.21 138.186 349.718 140.901 351.829C142.805 353.309 142.089 357.113 142.337 359.257C142.584 361.398 143.287 362.495 144.946 363.841C149.053 364.578 150.901 360.215 154.512 359.242C155.819 358.889 157.105 359.195 158.242 359.882C160.794 361.424 165.18 366.759 165.824 369.784C166.521 373.057 163.258 376.762 161.56 379.267C163.895 380.798 165.634 381.442 168.451 381.326C170.523 382.136 171.889 382.798 172.761 384.948C174.183 388.452 174.533 394.351 172.783 397.814C172.097 399.17 170.883 400.328 169.36 400.653C167.076 401.14 164.474 400.379 162.324 401.339C162.004 402.791 162.023 403.096 162.437 404.525C164.141 406.223 166.636 407.53 166.676 410.166C166.739 414.387 161.615 418.9 159.019 421.877L155.49 424.369C152.107 422.651 149.415 419.309 145.77 418.217C140.1 421.02 145.475 425.313 143.594 429.52C142.56 430.177 141.668 430.498 140.463 430.757C135.919 431.73 128.205 432.342 124.175 429.819C122.131 426.57 122.547 422.212 122.453 418.505C120.317 420.4 117.803 423.148 114.779 423.339C111.256 423.562 108.851 420.634 106.543 418.413C105.035 416.659 102.634 414.389 101.899 412.188C100.693 408.575 103.594 407.588 105.012 404.767C105.015 403.278 105.077 403.05 104.268 401.827C101.894 400.635 99.2294 402.094 96.7917 401.498C95.7896 401.253 95.0586 400.899 94.5218 400.002C92.8172 397.155 91.8907 389.146 92.9882 386.07C94.5857 381.593 98.6861 382.87 102.021 381.2C106.107 379.153 98.7072 373.021 99.9925 368.511C101.239 364.137 107.302 359.935 111.053 357.734Z"/>
	<path fill="#FEC13F" transform="scale(0.793204 0.793204)" d="M127.257 354.588C131.327 354.497 135.439 354.82 139.506 355.012C139.481 358.063 139.154 362.023 140.804 364.715C142.314 367.18 145.074 367.63 147.654 368.257L155.006 361.883C157.937 364.606 161.019 367.184 164.038 369.81C162.448 371.701 160.618 373.671 159.619 375.95C158.873 377.651 158.669 379.41 159.477 381.134C161.066 384.526 166.74 385.434 169.962 386.24C170.066 388.722 170.761 393.115 169.767 395.383C168.357 398.6 162.142 397.155 159.092 398.279C158.545 398.832 158.078 399.072 157.951 399.882C157.396 403.403 161.381 408.457 163.425 411.082C160.777 414.353 157.693 417.081 154.417 419.703L147.689 413.52C144.897 414.794 142.495 416.246 140 418.03C139.959 420.424 140.358 425.239 139.03 427.132L127.07 427.288C126.879 424.281 126.983 420.206 125.167 417.688C124.443 416.684 123.537 416.015 122.251 415.939C119.228 415.761 116.359 419.103 114.371 420.984C110.768 417.69 107.435 414.212 104.105 410.65C106.048 409.108 109.012 406.682 109.209 404.008C109.316 402.553 108.975 401.679 107.977 400.623C105.223 397.708 99.964 397.971 96.3097 397.98L96.2301 384.972C99.2095 384.849 102.78 385.012 105.316 383.223C106.392 382.464 107.151 381.429 107.24 380.075C107.476 376.522 104.156 373.461 101.939 371.087C104.657 367.565 107.674 364.545 110.962 361.556C112.236 363.016 113.652 364.486 115.342 365.465C117.487 366.706 121.138 368.053 123.588 367.046C127.785 365.32 125.836 358.456 127.096 355.005C127.147 354.865 127.204 354.727 127.257 354.588Z"/>
	<path transform="scale(0.793204 0.793204)" d="M129.398 371.518C133.031 371.451 136.454 371.848 139.813 373.358Q140.224 373.539 140.625 373.741Q141.025 373.943 141.415 374.166Q141.805 374.388 142.183 374.63Q142.561 374.872 142.926 375.133Q143.291 375.395 143.642 375.674Q143.993 375.954 144.33 376.252Q144.666 376.549 144.986 376.863Q145.307 377.177 145.611 377.508Q145.915 377.838 146.201 378.184Q146.487 378.529 146.756 378.889Q147.024 379.249 147.274 379.622Q147.523 379.995 147.753 380.381Q147.983 380.766 148.193 381.163Q148.403 381.56 148.592 381.967Q148.781 382.374 148.949 382.79Q149.117 383.207 149.263 383.631Q149.423 384.091 149.56 384.558Q149.697 385.026 149.81 385.499Q149.924 385.973 150.013 386.452Q150.103 386.93 150.168 387.413Q150.234 387.895 150.275 388.381Q150.316 388.866 150.333 389.353Q150.35 389.839 150.343 390.326Q150.335 390.813 150.303 391.299Q150.272 391.785 150.215 392.269Q150.159 392.753 150.079 393.233Q149.999 393.713 149.895 394.189Q149.791 394.665 149.663 395.135Q149.535 395.604 149.384 396.067Q149.232 396.53 149.058 396.985Q148.884 397.44 148.687 397.885Q148.491 398.331 148.272 398.766C145.562 404.08 141.184 406.553 135.791 408.443C131.966 409.039 128.419 408.845 124.835 407.237C120.279 405.194 116.938 401.224 115.298 396.549Q114.989 395.67 114.768 394.766Q114.548 393.861 114.417 392.939Q114.287 392.016 114.248 391.086Q114.209 390.155 114.262 389.225Q114.315 388.295 114.459 387.375Q114.604 386.455 114.838 385.554Q115.073 384.653 115.395 383.779Q115.717 382.905 116.124 382.067C118.949 376.24 123.548 373.576 129.398 371.518Z"/>
	<path fill="#FEFEFE" transform="scale(0.793204 0.793204)" d="M129.137 375.076C132.026 374.737 134.893 374.792 137.651 375.82C141.415 377.222 144.308 380.019 145.889 383.706C147.608 387.716 147.704 392.469 146.025 396.507C143.961 401.472 140.297 403.782 135.534 405.659C132.915 406.055 130.193 406.058 127.676 405.15Q126.965 404.901 126.282 404.581Q125.599 404.261 124.952 403.874Q124.306 403.486 123.701 403.035Q123.097 402.585 122.541 402.075Q121.986 401.566 121.485 401.002Q120.983 400.439 120.542 399.828Q120.1 399.217 119.722 398.565Q119.345 397.912 119.035 397.225Q118.686 396.483 118.414 395.709Q118.143 394.935 117.952 394.137Q117.761 393.34 117.653 392.527Q117.545 391.714 117.52 390.894Q117.495 390.074 117.555 389.256Q117.614 388.438 117.757 387.63Q117.9 386.822 118.124 386.034Q118.349 385.245 118.653 384.483C120.706 379.47 124.41 377.129 129.137 375.076Z"/>
	<path transform="scale(0.793204 0.793204)" d="M814.356 337.758C823.666 323.096 837.235 311.807 854.504 308.012Q856.029 307.68 857.569 307.424Q859.109 307.168 860.66 306.988Q862.211 306.808 863.768 306.704Q865.326 306.601 866.887 306.574Q868.447 306.547 870.008 306.597Q871.568 306.647 873.124 306.774Q874.68 306.9 876.228 307.103Q877.775 307.306 879.311 307.585Q880.847 307.864 882.368 308.218Q883.888 308.572 885.389 309.001Q886.89 309.429 888.369 309.931Q889.847 310.433 891.299 311.007Q892.75 311.581 894.172 312.226Q895.594 312.87 896.982 313.584Q898.37 314.298 899.722 315.079Q901.073 315.86 902.385 316.707C915.553 325.325 925.35 338.969 928.447 354.475Q928.697 355.787 928.891 357.108Q929.086 358.43 929.224 359.758Q929.363 361.086 929.446 362.419Q929.528 363.753 929.554 365.088Q929.581 366.423 929.55 367.758Q929.52 369.094 929.434 370.426Q929.348 371.759 929.205 373.087Q929.063 374.415 928.865 375.736Q928.666 377.057 928.413 378.368Q928.159 379.679 927.85 380.979Q927.541 382.278 927.178 383.563Q926.815 384.848 926.398 386.117Q925.98 387.386 925.51 388.636Q925.04 389.886 924.517 391.115Q923.995 392.344 923.421 393.55Q922.847 394.756 922.223 395.937C920.201 399.823 917.408 403.436 915.486 407.297C928.221 421.364 935.2 435.692 934.176 455.032C932.497 486.725 914.867 513.137 901.947 541.029C905.201 540.959 912.24 540.058 914.779 542.588C915.273 543.08 915.104 543.038 915.036 543.866C914.401 551.687 899.125 582.204 895.081 591.185C891.982 598.064 889.233 605.253 885.872 611.993C882.983 616.418 880.248 622.05 879.059 627.219C879.115 627.243 879.171 627.269 879.229 627.292C879.701 627.481 880.176 627.662 880.642 627.865C882.753 628.786 883.321 629.593 884.105 631.73C884.916 633.937 885.704 636.793 884.422 638.993C883.762 640.125 882.62 640.902 881.356 641.188C875.952 642.413 863.302 641.688 857.307 641.688L804.49 641.68Q789.66 641.631 774.83 641.799C768.874 641.899 762.696 642.401 756.756 642.12C754.573 642.017 751.998 641.693 750.201 640.327C748.741 639.218 747.897 637.537 747.786 635.72C747.659 633.639 748.482 631.028 749.968 629.524C750.706 628.777 751.287 628.365 752.313 628.113C756.976 626.964 769.435 627.94 774.908 627.997C774.997 624.812 775.183 622.033 776.787 619.169C777.525 617.85 778.723 616.565 780.316 616.392C781.485 616.264 781.981 616.411 782.92 617.051C782.397 620.19 778.491 622.027 778.077 625.252C777.922 626.458 778.458 626.829 779.196 627.631C783.362 628.975 790.171 628.016 794.656 627.97C797.649 620.568 800.992 613.299 804.237 606.005L821.524 568.168C825.553 559.472 829.498 549.542 835.18 541.798C840.214 540.735 845.359 540.963 850.474 540.981C850.673 533.239 850.487 525.447 850.483 517.699C846.185 518.983 842.055 520.032 837.523 519.825C829.072 519.438 821.396 515.457 815.812 509.167Q815.251 508.544 814.721 507.894Q814.192 507.244 813.695 506.568Q813.198 505.893 812.735 505.193Q812.272 504.494 811.844 503.773Q811.416 503.052 811.025 502.31Q810.633 501.569 810.279 500.809Q809.924 500.049 809.608 499.272Q809.292 498.495 809.014 497.704Q808.736 496.913 808.498 496.109Q808.26 495.305 808.062 494.49Q807.864 493.675 807.706 492.852Q807.548 492.028 807.432 491.198Q807.315 490.367 807.239 489.532Q807.164 488.697 807.13 487.859Q807.096 487.021 807.103 486.183Q807.11 485.344 807.159 484.507C807.696 476.623 811.178 468.905 817.291 463.786C824.277 457.936 833.433 456.312 842.281 457.181C852.241 459.752 857.608 463.973 863.893 472.049C864.099 463.919 863.976 455.749 863.986 447.615C863.993 441.27 864.248 434.795 863.638 428.479C856.768 426.945 849.831 425.515 843.344 422.709C828.455 416.268 816.892 403.205 810.966 388.248C803.692 369.889 806.774 355.232 814.356 337.758Z"/>
	<path fill="#FE7566" transform="scale(0.793204 0.793204)" d="M867.538 408.897C868.87 408.864 870.035 408.697 871.209 409.446C873.64 413.545 872.288 419.989 872.03 424.616C870.596 424.573 869.89 424.573 868.636 423.781C865.944 419.828 867.274 413.429 867.538 408.897Z"/>
	<path fill="#FE7566" transform="scale(0.793204 0.793204)" d="M867.522 387.519C869.244 387.589 870.213 387.376 871.639 388.388C873.828 392.619 872.523 399.704 872.417 404.496C870.665 404.484 869.762 404.72 868.276 403.741C866.199 399.362 867.429 392.406 867.522 387.519Z"/>
	<path fill="#FE7566" transform="scale(0.793204 0.793204)" d="M866.953 363.356L872.992 363.459C872.437 370.042 872.505 376.643 872.487 383.244C870.903 383.392 869.373 383.72 867.88 383.032C865.891 377.588 866.949 369.158 866.953 363.356Z"/>
	<path fill="#859829" transform="scale(0.793204 0.793204)" d="M850.483 517.699C856.025 515.63 859.719 512.428 863.731 508.212L863.7 540.991L850.474 540.981C850.673 533.239 850.487 525.447 850.483 517.699Z"/>
	<path fill="#2C70AF" transform="scale(0.793204 0.793204)" d="M867.494 428.37C869.011 428.398 870.421 428.264 871.753 429.101C873.382 434.302 872.191 443.935 872.195 449.58Q872.35 475.172 872.051 500.763C871.974 512.757 872.406 524.828 871.975 536.81C871.912 538.568 871.713 540.203 871.237 541.903C870.413 541.744 869.595 541.516 868.779 541.316C866.195 538.119 867.395 513.148 867.757 508.008C868.22 501.424 869.537 494.587 869.357 488.005C869.225 483.156 867.868 478.362 867.632 473.497C866.908 458.551 867.457 443.343 867.494 428.37Z"/>
	<path fill="#144C91" transform="scale(0.793204 0.793204)" d="M753.123 631.638C765.951 632.358 778.955 632.025 791.809 632.024L852.725 631.888C860.31 631.835 867.986 631.366 875.561 631.552C877.033 631.588 878.592 631.517 879.913 632.237C880.822 633.869 880.578 635.685 880.534 637.492L802.667 637.48C786.085 637.481 769.436 637.191 752.868 637.918L753.123 631.638Z"/>
	<path fill="#FEFEFE" transform="scale(0.793204 0.793204)" d="M834.5 459.171Q835.636 459.072 836.776 459.062Q837.916 459.052 839.053 459.132Q840.19 459.211 841.318 459.379Q842.445 459.547 843.556 459.802Q844.667 460.058 845.755 460.4Q846.842 460.742 847.9 461.167Q848.957 461.593 849.978 462.1Q850.999 462.608 851.977 463.193Q852.553 463.541 853.111 463.917Q853.669 464.294 854.207 464.698Q854.745 465.103 855.262 465.534Q855.779 465.966 856.273 466.423Q856.767 466.88 857.237 467.362Q857.707 467.844 858.152 468.349Q858.597 468.854 859.016 469.381Q859.435 469.908 859.826 470.456Q860.217 471.004 860.58 471.571Q860.943 472.138 861.276 472.722Q861.609 473.307 861.913 473.908Q862.216 474.509 862.488 475.125Q862.76 475.74 863.001 476.369Q863.241 476.998 863.449 477.638Q863.658 478.278 863.833 478.928Q864.008 479.578 864.15 480.236C865.819 487.673 864.651 495.666 860.393 502.055C855.374 509.584 848.508 512.374 840.024 514.01C832.852 514.394 825.962 513.209 820.053 508.807C814.139 504.4 810.386 498.121 809.399 490.796C808.362 483.096 810.233 475.035 815.129 468.91C820.099 462.693 826.839 459.999 834.5 459.171Z"/>
	<path transform="scale(0.793204 0.793204)" d="M833.32 471.517C836.108 471.415 838.929 471.385 841.571 472.4C845.659 473.971 848.758 477.151 850.319 481.233Q850.615 482 850.833 482.793Q851.052 483.585 851.19 484.396Q851.328 485.206 851.385 486.026Q851.442 486.846 851.416 487.668Q851.391 488.49 851.284 489.305Q851.177 490.12 850.989 490.92Q850.801 491.721 850.535 492.498Q850.268 493.276 849.925 494.023C847.998 498.14 844.623 500.39 840.489 501.914C838.093 502.338 835.878 502.22 833.535 501.525C829.676 500.38 826.568 497.747 824.702 494.194C822.657 490.301 822.173 485.611 823.566 481.423C825.271 476.3 828.694 473.76 833.32 471.517Z"/>
	<path fill="#FEC13F" transform="scale(0.793204 0.793204)" d="M835.13 477.04C836.874 476.96 838.696 476.887 840.417 477.242C843.087 477.792 845.613 479.645 847.006 481.976C848.557 484.573 848.842 487.765 848.03 490.654C846.867 494.792 844.119 497.174 840.545 499.273C838.949 499.462 837.381 499.568 835.777 499.38C833.155 499.073 830.708 497.777 829.191 495.583C827.448 493.063 827.083 489.719 827.692 486.77C828.659 482.094 831.266 479.501 835.13 477.04Z"/>
	<path fill="#859829" transform="scale(0.793204 0.793204)" d="M876.197 423.6C876.819 423.863 877.288 423.97 877.986 423.922C891.24 423.015 905.392 412.52 913.739 402.833C915.063 404.747 914.108 405.734 915.06 407.54L915.486 407.297C928.221 421.364 935.2 435.692 934.176 455.032C932.497 486.725 914.867 513.137 901.947 541.029C893.389 541.554 884.622 541.166 876.041 541.154L876.499 467.113C876.54 454.486 877.115 441.503 876.162 428.913C875.707 426.631 875.403 425.836 876.197 423.6Z"/>
	<path fill="#010022" transform="scale(0.793204 0.793204)" d="M876.197 423.6C876.819 423.863 877.288 423.97 877.986 423.922C891.24 423.015 905.392 412.52 913.739 402.833C915.063 404.747 914.108 405.734 915.06 407.54C909.925 413.027 904.968 417.653 898.204 421.099C892.817 423.844 887.556 425.59 881.722 426.999C880.121 427.385 877.172 427.666 876.162 428.913C875.707 426.631 875.403 425.836 876.197 423.6Z"/>
	<path fill="#FEFEFE" transform="scale(0.793204 0.793204)" d="M836.756 545.127Q874.273 546.031 911.791 545.155C903.786 563.827 895.075 582.324 886.478 600.733C882.306 609.667 877.854 618.494 874.055 627.595C849.063 627.12 823.985 627.481 798.983 627.456C804.519 613.432 811.356 600.109 817.707 586.455C824.106 572.699 830.095 558.762 836.756 545.127Z"/>
	<path transform="scale(0.793204 0.793204)" d="M843.747 552.418Q872.29 552.203 900.833 552.459C891.672 575.154 880.801 597.261 870.588 619.499L835.263 619.516C828.849 619.568 822.064 620.142 815.702 619.523C813.93 619.35 812.557 619.252 811.272 618.009L812.169 616.812C817.286 614.067 859.7 615.622 868.481 615.772C876.604 595.601 885.99 575.673 895.106 555.927L846.34 555.729L844.678 560.464C840.819 568.533 825.869 605.922 822.267 609.426L819.49 609.978C820.528 601.802 826.668 591.274 830.092 583.557L843.747 552.418Z"/>
	<path fill="#F59E28" transform="scale(0.793204 0.793204)" d="M844.678 560.464C859.143 560.48 873.846 559.979 888.282 560.766C883.988 569.95 879.462 579.062 875.417 588.357C872.259 595.612 869.574 603.182 866.14 610.298C851.044 609.935 834.521 609.164 819.49 609.978L822.267 609.426C825.869 605.922 840.819 568.533 844.678 560.464Z"/>
	<path fill="#FE7566" transform="scale(0.793204 0.793204)" d="M863.553 424.248C855.398 422.933 848.008 420.981 840.749 416.934Q839.471 416.212 838.232 415.427Q836.992 414.642 835.793 413.796Q834.594 412.95 833.439 412.045Q832.283 411.14 831.175 410.178Q830.066 409.217 829.007 408.201Q827.948 407.185 826.942 406.117Q825.935 405.05 824.983 403.933Q824.03 402.817 823.135 401.654Q822.24 400.491 821.404 399.285Q820.568 398.079 819.794 396.832Q819.02 395.586 818.308 394.302Q817.597 393.018 816.951 391.701Q816.305 390.383 815.726 389.035Q815.147 387.687 814.636 386.311Q814.124 384.936 813.683 383.536Q813.241 382.137 812.87 380.717Q812.507 379.413 812.211 378.092Q811.914 376.771 811.685 375.437Q811.455 374.102 811.292 372.758Q811.13 371.414 811.035 370.064Q810.941 368.713 810.914 367.36Q810.887 366.006 810.929 364.653Q810.97 363.3 811.08 361.951Q811.189 360.601 811.366 359.259Q811.543 357.917 811.787 356.585Q812.032 355.254 812.343 353.936Q812.653 352.618 813.03 351.318Q813.407 350.018 813.849 348.738Q814.29 347.458 814.796 346.202Q815.301 344.946 815.869 343.717Q816.437 342.488 817.066 341.29Q817.695 340.091 818.383 338.925Q819.09 337.712 819.855 336.534Q820.621 335.357 821.443 334.219Q822.266 333.081 823.143 331.985Q824.021 330.889 824.951 329.837Q825.882 328.785 826.863 327.781Q827.844 326.776 828.873 325.821Q829.903 324.866 830.978 323.962Q832.053 323.059 833.171 322.21Q834.289 321.36 835.448 320.567Q836.607 319.774 837.803 319.039Q839 318.303 840.231 317.628Q841.462 316.952 842.724 316.338Q843.987 315.724 845.279 315.173Q846.57 314.622 847.887 314.135Q849.205 313.648 850.544 313.227Q851.883 312.805 853.242 312.45C868.052 308.543 884.042 310.233 897.329 317.996C910.438 325.656 920.358 337.852 924.203 352.626C929.156 371.657 923.392 386.572 913.739 402.833C905.392 412.52 891.24 423.015 877.986 423.922C877.288 423.97 876.819 423.863 876.197 423.6C876.79 418.237 876.406 412.73 876.073 407.357C882.633 403.766 893.272 399.811 896.997 392.885L896.594 392.292C889.816 392.519 881.943 399.09 876.533 402.741C876.367 397.524 876.113 392.451 876.663 387.244C880.653 385.021 896.145 376.991 897.517 373.181C897.761 372.505 897.375 372.275 897.034 371.731C892.837 370.909 880.653 380.375 876.444 382.886C877.09 376.882 876.991 370.791 877.329 364.762C877.656 358.941 878.867 352.518 878.302 346.722C878.166 345.329 878.052 344.923 876.947 344.073C876.325 344.054 875.832 343.844 875.359 344.334C872.823 346.958 873.443 355.355 873.398 358.972L866.615 358.976C866.668 353.891 867.363 349.111 864.835 344.393C864.395 343.572 864.281 343.136 863.354 342.86C860.944 346.215 863.536 376.122 863.521 382.818C859.072 380.184 854.842 377.165 850.367 374.605C848.098 373.307 843.817 370.94 841.233 371.662L841.293 372.419C846.571 379.111 856.048 383.422 863.503 387.265L863.499 403.186Q858.891 400.221 854.215 397.365C851.531 395.743 845.274 391.621 842.051 392.417L841.669 393.191C842.905 397.813 858.304 403.592 862.993 408.034L863.507 408.529Q863.613 416.388 863.553 424.248Z"/>
	<path fill="#859829" transform="scale(0.793204 0.793204)" d="M168.451 381.326C173.331 380.071 178.109 378.185 182.899 376.609Q196.238 372.267 209.626 368.078C228.418 362.249 247.73 357.486 266.891 353.02Q280.315 349.891 293.799 347.028Q307.283 344.165 320.82 341.569Q334.358 338.973 347.944 336.645Q361.531 334.317 375.16 332.258Q388.79 330.199 402.458 328.41Q416.126 326.621 429.826 325.103Q443.526 323.584 457.254 322.337Q470.982 321.089 484.732 320.113Q498.481 319.138 512.248 318.434Q526.014 317.73 539.791 317.298Q553.569 316.866 567.352 316.707Q581.136 316.548 594.92 316.661Q608.703 316.774 622.482 317.16Q636.261 317.546 650.03 318.204Q663.798 318.862 677.551 319.791Q691.304 320.721 705.036 321.923Q740.763 325.371 776.228 330.9C788.964 332.968 801.577 336.012 814.356 337.758C806.774 355.232 803.692 369.889 810.966 388.248C816.892 403.205 828.455 416.268 843.344 422.709C849.831 425.515 856.768 426.945 863.638 428.479C864.248 434.795 863.993 441.27 863.986 447.615C863.976 455.749 864.099 463.919 863.893 472.049C857.608 463.973 852.241 459.752 842.281 457.181C841.919 454.921 841.31 452.589 840.608 450.414Q840.175 449.094 839.676 447.796Q839.177 446.499 838.615 445.228Q838.052 443.958 837.426 442.717Q836.8 441.476 836.114 440.268Q835.427 439.06 834.68 437.887Q833.934 436.715 833.13 435.581Q832.326 434.448 831.467 433.356Q830.607 432.264 829.694 431.216Q828.781 430.168 827.817 429.167Q826.852 428.167 825.839 427.215Q824.826 426.264 823.767 425.364Q822.708 424.465 821.605 423.619Q820.502 422.774 819.358 421.984Q818.214 421.195 817.032 420.464Q815.851 419.732 814.634 419.061Q813.417 418.39 812.168 417.78C804.669 414.06 796.993 412.479 788.666 412.1C774.935 411.477 761.131 411.95 747.386 411.964L673.119 411.986L441.734 411.982L270.575 411.981L220.325 411.958C209.432 411.911 198.322 411.363 187.462 412.243C180.605 412.799 173.763 415.153 167.571 418.056C165.079 419.225 162.579 420.769 159.954 421.595C159.644 421.693 159.331 421.783 159.019 421.877C161.615 418.9 166.739 414.387 166.676 410.166C166.636 407.53 164.141 406.223 162.437 404.525C162.023 403.096 162.004 402.791 162.324 401.339C164.474 400.379 167.076 401.14 169.36 400.653C170.883 400.328 172.097 399.17 172.783 397.814C174.533 394.351 174.183 388.452 172.761 384.948C171.889 382.798 170.523 382.136 168.451 381.326Z"/>
	<path fill="#859829" transform="scale(0.793204 0.793204)" d="M122.453 418.505C122.547 422.212 122.131 426.57 124.175 429.819C128.205 432.342 135.919 431.73 140.463 430.757C141.668 430.498 142.56 430.177 143.594 429.52C145.475 425.313 140.1 421.02 145.77 418.217C149.415 419.309 152.107 422.651 155.49 424.369C151.502 427.798 147.288 431.067 143.654 434.874C133.993 444.992 127.583 458.807 126.549 472.79C125.514 486.775 126.182 500.929 126.352 514.935C126.646 539.304 123.504 563.204 140.783 583.143C152.141 596.248 167.874 603.63 185.107 604.84C199.127 605.824 213.627 604.969 227.701 604.923L304.12 604.918L603.196 604.926L698.755 604.928C714.635 604.927 731.439 604.014 747.235 605.085C750.935 605.086 754.561 605.193 758.247 605.527C773.488 606.851 788.954 606.142 804.237 606.005C800.992 613.299 797.649 620.568 794.656 627.97C790.171 628.016 783.362 628.975 779.196 627.631C778.458 626.829 777.922 626.458 778.077 625.252C778.491 622.027 782.397 620.19 782.92 617.051C781.981 616.411 781.485 616.264 780.316 616.392C778.723 616.565 777.525 617.85 776.787 619.169C775.183 622.033 774.997 624.812 774.908 627.997C769.435 627.94 756.976 626.964 752.313 628.113C751.287 628.365 750.706 628.777 749.968 629.524C748.482 631.028 747.659 633.639 747.786 635.72C747.897 637.537 748.741 639.218 750.201 640.327C751.998 641.693 754.573 642.017 756.756 642.12C762.696 642.401 768.874 641.899 774.83 641.799Q789.66 641.631 804.49 641.68L857.307 641.688C863.302 641.688 875.952 642.413 881.356 641.188C882.62 640.902 883.762 640.125 884.422 638.993C885.704 636.793 884.916 633.937 884.105 631.73C883.321 629.593 882.753 628.786 880.642 627.865C880.176 627.662 879.701 627.481 879.229 627.292C879.171 627.269 879.115 627.243 879.059 627.219C880.248 622.05 882.983 616.418 885.872 611.993C893.998 616.757 902.195 622.175 908.579 629.186C914.314 635.484 918.164 643.543 917.577 652.218C917.016 660.506 912.079 667.236 905.917 672.398C860.998 710.02 706.104 717.548 645.319 717.878Q570.151 717.761 495.245 711.493C386.837 702.352 241.168 680.959 150.815 619.706Q144.05 615.087 137.612 610.022Q131.174 604.957 125.092 599.47Q119.009 593.983 113.311 588.098Q107.612 582.214 102.323 575.959C81.0793 550.723 62.2069 512.112 65.2366 478.79C67.7916 450.69 86.4068 435.169 106.543 418.413C108.851 420.634 111.256 423.562 114.779 423.339C117.803 423.148 120.317 420.4 122.453 418.505Z"/>
	<path transform="scale(0.793204 0.793204)" d="M747.235 605.085C750.935 605.086 754.561 605.193 758.247 605.527C758.221 606.134 758.241 606.9 758.114 607.504C757.979 608.143 757.893 608.969 757.252 609.27C753.088 611.225 673.576 609.916 661.993 609.915L315.607 609.916L255.91 609.874C247.083 609.901 223.933 611.904 217.025 609.49C216.093 608.158 216.216 607.55 216.127 605.957C217.353 604.907 220.642 605.354 222.353 605.349L655.518 605.329L714.518 605.35C725.098 605.365 736.069 605.936 746.607 605.137L747.235 605.085Z"/>
	<path fill="#FEC13F" transform="scale(0.793204 0.793204)" d="M159.019 421.877C159.331 421.783 159.644 421.693 159.954 421.595C162.579 420.769 165.079 419.225 167.571 418.056C173.763 415.153 180.605 412.799 187.462 412.243C198.322 411.363 209.432 411.911 220.325 411.958L270.575 411.981L441.734 411.982L673.119 411.986L747.386 411.964C761.131 411.95 774.935 411.477 788.666 412.1C796.993 412.479 804.669 414.06 812.168 417.78Q813.417 418.39 814.634 419.061Q815.851 419.732 817.032 420.464Q818.214 421.195 819.358 421.984Q820.502 422.774 821.605 423.619Q822.708 424.465 823.767 425.364Q824.826 426.264 825.839 427.215Q826.852 428.167 827.817 429.167Q828.781 430.168 829.694 431.216Q830.607 432.264 831.467 433.356Q832.326 434.448 833.13 435.581Q833.934 436.715 834.68 437.887Q835.427 439.06 836.114 440.268Q836.8 441.476 837.426 442.717Q838.052 443.958 838.615 445.228Q839.177 446.499 839.676 447.796Q840.175 449.094 840.608 450.414C841.31 452.589 841.919 454.921 842.281 457.181C833.433 456.312 824.277 457.936 817.291 463.786C811.178 468.905 807.696 476.623 807.159 484.507Q807.11 485.344 807.103 486.183Q807.096 487.021 807.13 487.859Q807.164 488.697 807.239 489.532Q807.315 490.367 807.432 491.198Q807.548 492.028 807.706 492.852Q807.864 493.675 808.062 494.49Q808.26 495.305 808.498 496.109Q808.736 496.913 809.014 497.704Q809.292 498.495 809.608 499.272Q809.924 500.049 810.279 500.809Q810.633 501.569 811.025 502.31Q811.416 503.052 811.844 503.773Q812.272 504.494 812.735 505.193Q813.198 505.893 813.695 506.568Q814.192 507.244 814.721 507.894Q815.251 508.544 815.812 509.167C821.396 515.457 829.072 519.438 837.523 519.825C842.055 520.032 846.185 518.983 850.483 517.699C850.487 525.447 850.673 533.239 850.474 540.981C845.359 540.963 840.214 540.735 835.18 541.798C829.498 549.542 825.553 559.472 821.524 568.168L804.237 606.005C788.954 606.142 773.488 606.851 758.247 605.527C754.561 605.193 750.935 605.086 747.235 605.085C731.439 604.014 714.635 604.927 698.755 604.928L603.196 604.926L304.12 604.918L227.701 604.923C213.627 604.969 199.127 605.824 185.107 604.84C167.874 603.63 152.141 596.248 140.783 583.143C123.504 563.204 126.646 539.304 126.352 514.935C126.182 500.929 125.514 486.775 126.549 472.79C127.583 458.807 133.993 444.992 143.654 434.874C147.288 431.067 151.502 427.798 155.49 424.369L159.019 421.877Z"/>
	<path transform="scale(0.793204 0.793204)" d="M685.649 535.142C686.807 535.284 687.694 535.595 688.775 536.006C689.781 537.385 689.723 537.986 689.903 539.65C688.449 539.592 687.371 539.553 686.033 538.888C685.357 537.504 685.571 536.661 685.649 535.142Z"/>
	<path transform="scale(0.793204 0.793204)" d="M332.213 534.144C333.632 534.27 334.711 534.407 336.029 535.02C336.862 536.494 336.688 537.11 336.634 538.77C335.312 539.072 334.447 539.14 333.243 538.483C332.236 537.044 332.28 535.825 332.213 534.144Z"/>
	<path transform="scale(0.793204 0.793204)" d="M686.062 541.599C687.234 541.747 688.071 541.778 689.072 542.459C691.383 546.519 690.084 554.261 689.938 558.987C689.106 558.79 687.873 558.717 687.28 558.081C684.236 554.812 685.803 545.77 686.062 541.599Z"/>
	<path transform="scale(0.793204 0.793204)" d="M332.872 540.618C333.086 540.649 333.301 540.672 333.514 540.711C334.498 540.89 335.328 541.142 335.854 542.028C338.187 545.959 336.923 555.284 335.861 559.601C334.726 559.297 333.614 559.272 332.928 558.207C330.617 554.619 332.37 544.76 332.872 540.618Z"/>
	<path transform="scale(0.793204 0.793204)" d="M455 541.263C455.162 541.336 455.343 541.38 455.488 541.484C456.523 542.229 456.771 542.589 456.95 543.766C455.965 545.751 453.166 547.35 451.442 548.718C451.513 551.214 452.516 555.18 451.295 557.419C450.531 558.819 449.329 558.931 447.944 559.405C447.191 555.571 447.197 550.236 447.666 546.358C447.85 544.841 447.983 543.036 449.264 542.031L450.13 542.185L451.103 544.185L451.82 544.364L455 541.263Z"/>
	<path transform="scale(0.793204 0.793204)" d="M359.382 541.383C360.453 541.976 361.107 542.92 361.864 543.853L362 543.305L362.243 544.209C362.872 544.101 362.651 544.205 363.172 543.862C364.934 542.703 365.638 542.011 367.831 542.349L368.359 543.197C367.761 544.991 364.541 546.61 362.979 547.772C362.025 549.289 362.131 550.633 362.127 552.363L362.132 553.124C362.221 555.056 362.083 557.121 361.005 558.768L360.21 558.822C359.205 557.814 358.793 556.816 358.389 555.478C357.079 551.138 357.202 545.401 359.382 541.383Z"/>
	<path transform="scale(0.793204 0.793204)" d="M763.909 541.434C764.549 541.628 765.005 542.046 765.542 542.435C766.025 545.653 760.978 546.024 759.665 548.286C758.1 550.982 760.623 554.664 759.334 557.593C758.305 558.721 757.236 558.793 755.811 559.052C755.439 555.086 754.135 546.215 756.433 543.069C757.424 542.825 757.963 542.743 758.989 542.926C759.308 542.982 759.62 543.076 759.94 543.115C761.817 543.344 762.458 542.468 763.909 541.434Z"/>
	<path transform="scale(0.793204 0.793204)" d="M527.095 541.881C528.099 541.946 528.711 542.158 529.645 542.496L529.952 543.29C529.089 545.312 525.425 547.548 523.784 549.217C523.085 551.386 523.623 553.341 523.758 555.548C523.877 557.49 523.175 558.469 521.951 559.884L520.74 559.282C518.779 556.178 519.121 549.942 519.597 546.336C519.801 544.789 520.011 543.594 521.261 542.615C522.342 543.016 523.33 543.416 524.495 543.488C525.516 543.551 526.327 542.512 527.095 541.881Z"/>
	<path transform="scale(0.793204 0.793204)" d="M252.516 534.817C253.877 534.845 254.793 534.817 255.979 535.596C257.753 539.892 256.531 553.855 256.417 559.176C255.09 559.125 253.972 559.157 252.772 558.5C250.641 553.16 252.104 540.887 252.516 534.817Z"/>
	<path transform="scale(0.793204 0.793204)" d="M466.22 542.063C467.946 541.899 469.849 541.559 471.494 542.262C472.55 542.714 473.418 543.708 473.91 544.708C471.462 546.394 467.93 545.027 465.129 547.221C464.397 548.425 464.261 549.341 464.424 550.722C464.625 552.418 465.421 554.103 466.91 555.044C468.876 556.286 470.647 555.739 472.791 555.363C473.409 555.21 473.019 555.227 473.904 555.734C473.811 556.874 473.853 557.083 472.946 557.889C471.748 558.953 469.88 559.577 468.286 559.406C465.933 559.153 463.391 557.358 462.093 555.425C460.792 553.488 460.457 551.129 460.969 548.871C461.72 545.562 463.495 543.895 466.22 542.063Z"/>
	<path transform="scale(0.793204 0.793204)" d="M773.717 541.446C775.721 541.534 777.519 541.67 779.173 542.923C780.105 543.629 779.856 543.221 780.01 544.306C777.94 545.496 774.634 544.223 773.039 545.736C774.089 548.621 778.215 550.011 780.506 551.831C781.529 552.644 781.758 553.232 781.97 554.48C780.984 556.953 778.542 557.916 776.349 559.136C775.592 559.137 774.832 559.137 774.076 559.077C772.546 558.957 771.117 558.478 770.146 557.232C769.486 556.384 769.611 556.773 769.77 555.769C771.64 555.123 773.278 555.974 775.123 555.818C776.269 555.721 776.243 555.359 776.847 554.564C776.111 550.826 771.109 550.792 769.323 547.783C768.981 547.208 768.794 546.534 768.975 545.883C769.562 543.765 771.994 542.533 773.717 541.446Z"/>
	<path transform="scale(0.793204 0.793204)" d="M674.135 541.411C676.027 541.445 678.19 541.749 679.789 542.793L679.794 543.482C678.147 544.915 675.818 544.994 673.728 545.349C675.634 547.774 680.491 550.793 681.206 553.674C681.416 554.521 681.489 555.135 681.049 555.9C679.811 558.055 677.027 558.568 674.812 559.226C672.893 558.587 670.425 557.822 669.441 555.97C671.469 554.516 674.713 556.181 677.088 554.561C677.334 551.542 670.344 550.456 669.216 546.687C669.77 544.057 672.035 542.784 674.135 541.411Z"/>
	<path fill="#F59E28" transform="scale(0.793204 0.793204)" d="M207.83 517.888C208.547 519.044 208.951 519.679 209.067 521.073C208.354 522.405 207.743 522.847 206.267 523.24C201.301 524.563 195.085 523.909 190.028 523.436C188.744 521.697 187.302 520.002 186.494 517.983Q197.163 518.248 207.83 517.888Z"/>
	<path transform="scale(0.793204 0.793204)" d="M536.886 541.999C538.712 541.939 541.345 541.654 543.065 542.404C544.141 542.873 544.435 542.988 544.775 544.076C542.592 545.596 539.345 544.516 537.084 546.073C538.627 548.963 542.855 549.562 544.862 552.372C545.421 553.156 545.717 554.176 545.47 555.115C544.871 557.394 542.81 558.387 540.942 559.525C539.404 559.484 537.646 559.426 536.22 558.78C535.069 558.259 534.188 557.686 533.659 556.552C535.843 555.071 539.505 556.029 542.1 554.954C541.176 551.446 535.427 551.354 533.348 548.514C532.878 547.871 532.673 547.278 532.845 546.509C533.318 544.397 535.251 543.198 536.886 541.999Z"/>
	<path transform="scale(0.793204 0.793204)" d="M394.227 542.023C396.06 541.904 397.935 541.721 399.722 542.255C401.08 542.661 402.09 543.373 402.785 544.626C400.683 546.682 396.524 544.441 394.383 546.125C396.353 548.967 401.241 549.439 403.193 552.34C403.617 552.97 403.859 553.699 403.691 554.443C403.205 556.603 401.195 557.773 399.513 558.969C397.286 559.011 394.318 559.156 392.234 558.352C391.128 557.926 390.777 557.479 390.324 556.432C391.324 555.002 397.406 556.005 399.522 555.155L399.752 554.362C398.368 550.594 393.762 551.289 391.146 548.926C390.583 548.417 390.354 547.876 390.442 547.14C390.698 544.996 392.737 543.397 394.227 542.023Z"/>
	<path transform="scale(0.793204 0.793204)" d="M723.858 541.39C724.512 541.486 725.183 541.563 725.812 541.781C727.471 542.356 728.821 543.718 729.607 545.258C731.161 548.303 731.109 552.251 730.07 555.45C729.619 556.841 729.107 557.728 727.784 558.362C724.851 555.456 727.882 549.862 725.301 546.356C723.995 545.485 723.26 545.422 721.753 545.441C721.588 545.444 721.424 545.45 721.26 545.454C718.381 548.886 720.106 553.324 718.905 557.311C718.582 558.383 718.863 557.985 717.808 558.537L716.777 558.162C715.329 556.036 715.564 553.38 715.591 550.92C715.614 548.743 715.175 543.843 716.673 542.38C717.655 542.718 718.794 543.223 719.815 543.374C721.564 543.633 722.551 542.371 723.858 541.39Z"/>
	<path transform="scale(0.793204 0.793204)" d="M587.738 541.585C589.128 541.457 590.357 541.459 591.608 542.156C593.829 543.393 594.54 546.071 595.024 548.394C595.775 551.994 595.485 555.423 593.407 558.522L592.627 558.609C589.491 554.249 592.818 548.558 588.537 544.714C587.66 544.869 587.19 545.057 586.404 545.437C583.332 549 585.164 553.615 583.76 557.784C582.719 558.714 582.726 558.616 581.313 558.602C581.231 558.467 581.134 558.341 581.066 558.199C579.704 555.359 579.84 546.871 580.778 543.885C581.649 541.115 583.515 542.963 585.482 542.71C586.037 542.639 587.185 541.86 587.738 541.585Z"/>
	<path transform="scale(0.793204 0.793204)" d="M741.432 541.997C743.036 541.943 744.982 541.79 746.507 542.396C748.561 543.212 750.929 546.518 751.864 548.497C751.724 553.684 742.836 549.748 740.096 552.661C740.307 553.647 740.765 554.232 741.53 554.891C743.12 556.262 745.325 555.883 747.271 555.8C748.285 555.479 748.051 555.357 749.12 555.849L749.051 556.939C748.656 557.392 748.269 557.871 747.768 558.215C746.382 559.166 744.52 559.474 742.889 559.15C740.505 558.677 738.116 556.973 736.901 554.868C735.738 552.852 735.606 550.492 736.201 548.271C737.048 545.104 738.71 543.64 741.432 541.997Z"/>
	<path fill="#FEC13F" transform="scale(0.793204 0.793204)" d="M741.941 544.553C742.863 544.761 743.93 544.945 744.783 545.354C745.947 545.911 746.32 546.46 746.705 547.637L745.999 548.76C744.074 548.765 741.762 549.056 740.275 547.759C740.301 546.363 741.112 545.585 741.941 544.553Z"/>
	<path transform="scale(0.793204 0.793204)" d="M479.309 534.713C480.466 534.87 481.369 535.17 482.448 535.613C484.901 538.538 482.8 539.792 482.826 542.913C482.834 543.903 482.928 543.967 483.621 544.719C485.143 543.55 487.082 541.9 489.11 541.96C490.268 541.994 491.251 542.558 492.014 543.404C493.94 545.54 494.746 549.451 494.549 552.249C494.389 554.509 493.562 557.196 491.756 558.647L490.872 558.512C490.108 557.196 490.078 556.182 490.015 554.708L489.994 554.125C490.06 552.872 490.144 551.602 490.091 550.348C489.996 548.133 489.272 546.87 487.651 545.413C486.576 545.226 486.085 545.021 485.194 545.868C482.057 548.853 483.938 553.378 483.218 556.945C482.979 558.129 482.339 558.875 481.377 559.513L480.674 558.928C478.194 552.094 479.584 542.058 479.309 534.713Z"/>
	<path transform="scale(0.793204 0.793204)" d="M656.384 541.503C657.508 541.451 658.631 541.452 659.744 541.635C661.736 541.964 664.203 543.678 665.234 545.404C665.901 546.519 666.341 547.654 666.024 548.955C665.194 552.356 657.872 551.178 655.321 552.589C655.455 553.575 655.234 553.249 655.786 553.775C658.098 555.976 659.642 555.731 662.617 555.641C663.728 555.464 663.157 555.408 664.314 555.927C664.225 556.916 664.444 556.725 663.755 557.288C662.342 558.441 660.14 559.21 658.303 559.011C656.146 558.777 653.811 557.603 652.52 555.831C651.163 553.967 650.873 551.598 651.233 549.367C651.818 545.75 653.492 543.598 656.384 541.503Z"/>
	<path fill="#FEC13F" transform="scale(0.793204 0.793204)" d="M657.096 544.278C658.806 544.594 659.903 544.922 661.163 546.161C661.525 547.528 661.515 547.491 660.898 548.766C659.176 548.746 657.112 549.064 655.695 547.951C655.646 546.286 656.255 545.687 657.096 544.278Z"/>
	<path transform="scale(0.793204 0.793204)" d="M376.852 542.01C379.089 541.857 381.049 541.955 383.074 543.025C384.548 543.802 386.394 545.655 386.648 547.383C386.859 548.818 386.343 549.429 385.607 550.545C382.785 552.265 379.059 552.312 375.82 552.697L376.394 554.329L375.913 552.722L375.972 554.084C378.603 555.894 379.758 556.109 382.89 555.589C383.54 555.461 384.084 555.541 384.74 555.596L384.924 556.359C384.802 556.523 384.693 556.698 384.557 556.85C383.164 558.408 380.633 558.812 378.643 558.925C376.789 559.03 374.74 558.522 373.467 557.083C371.66 555.041 371.378 551.377 371.776 548.803C372.267 545.622 374.324 543.755 376.852 542.01Z"/>
	<path fill="#FEC13F" transform="scale(0.793204 0.793204)" d="M377.143 544.842C379.22 544.917 380.506 545.305 382.066 546.71C382.461 548.033 382.466 547.971 381.872 549.218C380.147 549.279 377.904 549.617 376.436 548.599C376.013 546.932 376.5 546.401 377.143 544.842Z"/>
	<path transform="scale(0.793204 0.793204)" d="M413.656 541.964C413.827 541.966 413.999 541.959 414.17 541.97C416.892 542.144 418.831 542.823 420.646 544.89C421.889 546.305 422.893 547.675 422.718 549.629C420.38 552.462 416.536 551.517 413.299 552.469C412.273 552.771 412.652 552.488 412.131 553.452C412.594 554.235 412.965 554.802 413.77 555.293C415.853 556.566 418.597 555.656 420.823 555.205L421.321 556.33C421.026 557.504 420.922 557.894 419.685 558.43C417.738 559.274 414.645 558.849 412.683 558.267C410.56 557.637 408.501 556.414 407.541 554.335C406.575 552.244 406.987 549.766 407.824 547.704C409.015 544.771 410.831 543.242 413.656 541.964Z"/>
	<path fill="#FEC13F" transform="scale(0.793204 0.793204)" d="M413.544 544.791C414.669 544.909 416.111 545.276 417.001 546.047C418.046 546.953 418.051 547.248 418.104 548.528L417.096 549.581C415.149 549.556 413.37 549.626 411.801 548.371C411.9 546.645 412.532 546.157 413.544 544.791Z"/>
	<path transform="scale(0.793204 0.793204)" d="M505.708 541.414C508.325 541.492 510.438 542.225 512.277 544.113C513.795 545.672 514.982 547.055 514.938 549.293C512.922 552.16 507.837 551.152 504.781 552.203C503.729 552.564 504.123 552.261 503.607 553.345C504.012 554.022 504.356 554.588 505.002 555.066C507.3 556.765 509.797 555.975 512.392 555.511C512.677 555.731 512.964 556.191 513.189 556.479C512.638 557.47 512.041 558.095 511.081 558.685C509.637 559.571 507.841 559.677 506.23 559.239C503.735 558.562 501.484 556.748 500.219 554.503C499.099 552.516 498.626 550.089 499.33 547.878C500.365 544.634 502.84 542.93 505.708 541.414Z"/>
	<path fill="#FEC13F" transform="scale(0.793204 0.793204)" d="M505.69 544.233C506.823 544.394 507.843 544.785 508.711 545.553C509.708 546.436 509.931 546.926 509.982 548.225L508.97 549.073C507.797 549.096 506.525 549.197 505.375 548.943C504.254 548.695 504.195 548.573 503.623 547.656C503.9 546.168 504.739 545.339 505.69 544.233Z"/>
	<path transform="scale(0.793204 0.793204)" d="M430.353 542.038C433.086 541.861 436.048 541.412 438.369 543.167C440.319 544.64 441.134 547.181 441.345 549.518C441.55 551.778 441.452 557.093 439.947 558.903L438.699 558.906C435.697 556.959 432.834 558.689 429.492 559.239C428.415 558.244 427.325 557.162 426.845 555.73C426.441 554.525 426.36 553.396 427.012 552.256C428.268 550.06 431.213 549.494 433.466 549.025C434.426 548.825 435.388 548.732 436.167 548.086C436.988 547.407 437.146 547.239 437.295 546.174C434.587 544.841 430.435 546.576 427.999 544.936C428.485 543.504 429.248 543.044 430.353 542.038Z"/>
	<path fill="#FEC13F" transform="scale(0.793204 0.793204)" d="M435.428 550.912L436.257 551.42C436.613 552.039 436.976 552.304 436.814 553.05C436.401 554.945 434.35 556.049 432.873 557.069C432.545 556.796 432.123 556.468 431.865 556.135C431.077 555.116 431.009 554.71 431.122 553.516C432.272 552.003 433.701 551.59 435.428 550.912Z"/>
	<path transform="scale(0.793204 0.793204)" d="M315.056 541.575C316.921 541.436 319.247 540.943 321.029 541.645C323.399 542.577 325.117 544.754 325.933 547.113C326.968 550.105 327.209 554.854 325.683 557.719C325.143 558.733 324.934 558.756 323.905 559.09C323.712 558.905 323.032 558.239 322.826 558.119C321.686 557.462 316.789 559.133 315.204 559.413C314.658 558.911 314.109 558.407 313.599 557.868C312.525 556.735 311.6 555.115 311.796 553.495C312.351 548.886 319.572 549.429 322.329 547.234L322.185 546.253C318.624 543.136 315.897 546.669 313.049 544.998C313.233 543.586 314.196 542.647 315.056 541.575Z"/>
	<path fill="#FEC13F" transform="scale(0.793204 0.793204)" d="M316.959 550.979C318.502 550.965 320.326 550.868 321.532 551.94C321.77 553.612 321.274 554.205 320.582 555.715C320.064 555.819 319.806 555.888 319.243 555.904C317.94 555.942 317.326 555.631 316.387 554.797C315.975 553.251 316.396 552.39 316.959 550.979Z"/>
	<path transform="scale(0.793204 0.793204)" d="M202.819 534.367C204.041 534.454 204.357 534.346 205.422 535.03C205.629 538.595 201.043 543.842 199.005 546.812C200.647 549.426 202.494 551.885 204.219 554.442C205.146 555.816 205.996 557.101 205.673 558.812C204.425 559.599 203.912 559.442 202.466 559.424C200.058 557.248 198.235 553.226 196.49 550.43C194.592 552.918 193.018 555.566 191.412 558.246L190.722 559.213C189.412 559.33 188.687 559.496 187.504 558.809C187.036 555.592 192.337 549.25 194.093 546.454C191.809 543.345 188.23 539.257 188.276 535.263L188.874 534.974C192.268 536.841 194.371 540.109 196.57 543.185C198.398 540.021 200.266 537.004 202.819 534.367Z"/>
	<path transform="scale(0.793204 0.793204)" d="M565.856 541.343C566.985 541.483 566.45 541.339 567.588 541.838C570.942 543.312 572.111 541.545 574.118 542.426C574.296 542.883 574.41 543.132 574.53 543.585C575.533 547.369 575.639 554.918 573.614 558.227L572.498 558.452C572.291 558.269 571.605 557.651 571.395 557.525C571.123 557.362 570.818 557.263 570.529 557.132C568.847 558.15 567.023 559.183 564.973 558.752C563.409 558.422 562.211 557.699 561.315 556.376C559.742 554.055 559.616 550.914 560.229 548.262C561.047 544.722 562.894 543.215 565.856 541.343Z"/>
	<path fill="#FEC13F" transform="scale(0.793204 0.793204)" d="M566.118 544.737C567.315 544.801 568.449 544.926 569.486 545.598C570.548 546.287 571.096 547.315 571.315 548.531C571.806 551.262 570.021 554.006 568.533 556.094C567.649 556.009 566.588 555.873 565.809 555.384C564.629 554.643 563.798 553.614 563.567 552.223C563.071 549.243 564.425 547.034 566.118 544.737Z"/>
	<path transform="scale(0.793204 0.793204)" d="M162.048 534.823C163.43 535.019 164.936 534.897 165.861 536.12C167.581 538.393 166.517 542.728 166.243 545.35C165.929 548.358 165.592 551.604 167.741 554.044C168.757 555.197 170.143 555.974 171.729 555.858C180.681 555.204 174.496 540.96 178.587 535.384C179.722 534.815 179.689 534.721 180.895 535.058C181.688 536.513 181.465 537.009 181.308 538.622C180.661 544.82 182.833 552.505 177.81 557.379C176.046 559.091 174.22 559.593 171.808 559.533C169.053 559.465 166.564 558.704 164.713 556.561C160.128 551.253 161.671 541.362 162.048 534.823Z"/>
	<path transform="scale(0.793204 0.793204)" d="M225.077 534.632C225.758 534.724 226.662 534.789 227.287 535.073C232.495 537.439 227.256 548.98 229.922 553.406C230.835 554.921 232.029 555.569 233.706 555.917C235.097 556.206 236.528 556.155 237.674 555.226C241.489 552.138 239.725 542.669 240.06 538.259C240.185 536.614 240.598 535.99 241.814 534.921L243.073 535.044C244.276 536.164 244.186 536.224 244.393 537.875L244.46 540.627C244.566 545.807 245.372 553.339 241.286 557.274C239.544 558.951 237.1 559.514 234.744 559.478C231.978 559.435 229.277 558.727 227.363 556.618C222.827 551.619 224.617 540.915 225.077 534.632Z"/>
	<path transform="scale(0.793204 0.793204)" d="M611.413 534.987L614.668 535.133C616.503 539.344 615.604 553.968 614.667 558.482C613.371 560.048 612.1 557.951 610.519 557.894C609.083 557.843 606.952 558.815 605.593 559.256C604.662 558.769 603.65 558.271 602.862 557.567C600.929 555.841 599.662 552.061 599.742 549.518C599.805 547.488 600.586 545.639 602.09 544.264C604.86 541.732 607.789 542.322 611.229 542.544C611.454 540.033 611.404 537.506 611.413 534.987Z"/>
	<path fill="#FEC13F" transform="scale(0.793204 0.793204)" d="M606.19 544.831C607.121 544.955 608.132 545.101 608.994 545.504C610.171 546.053 611.002 547.066 611.355 548.305C612.133 551.038 610.386 553.779 609.015 555.96C608.267 555.872 607.239 555.676 606.576 555.331C605.362 554.699 604.699 553.789 604.298 552.5C603.485 549.886 604.939 547.018 606.19 544.831Z"/>
	<path transform="scale(0.793204 0.793204)" d="M700.254 541.395C702.066 541.414 703.85 542.005 705.595 542.462C706.618 542.16 707.57 541.935 708.627 541.797C709.031 542.13 709.089 542.132 709.401 542.656C711.204 545.687 710.3 554.413 709.335 557.675C708.584 560.215 707.148 562.481 704.711 563.679C701.893 565.064 699.111 563.949 696.335 563.086C696.082 562.869 695.779 562.311 695.588 562.027L696.095 561.178C698.142 560.241 700.206 560.974 702.33 560.468C703.697 560.143 704.8 559.508 705.596 558.348L705.359 557.693C703.661 556.507 701.724 557.335 699.813 557.142C698.603 557.019 697.277 555.946 696.488 555.051C695.174 553.558 694.879 551.452 695.124 549.542C695.621 545.664 697.208 543.669 700.254 541.395Z"/>
	<path fill="#FEC13F" transform="scale(0.793204 0.793204)" d="M701.815 544.18C702.867 544.511 703.771 544.759 704.621 545.51C705.52 546.303 706.069 547.354 706.151 548.553C706.33 551.186 704.989 552.899 703.317 554.753C702.647 554.513 701.918 554.285 701.296 553.926C700.225 553.307 699.364 552.191 699.13 550.972C698.612 548.286 700.254 546.138 701.815 544.18Z"/>
	<path transform="scale(0.793204 0.793204)" d="M641.848 534.87C642.399 534.879 642.951 534.887 643.5 534.932C644.135 534.984 645.401 535.016 645.733 535.549C647.425 538.259 646.316 555.16 645.577 558.698L644.822 559.042C641.168 557.528 639.279 558.371 635.591 559.193C633.907 558.207 632.648 556.922 631.791 555.158C630.509 552.521 630.256 549.297 631.27 546.531C631.96 544.65 633.343 543.024 635.188 542.199C637.592 541.123 639.526 542.116 641.81 542.969C641.949 540.279 641.862 537.563 641.848 534.87Z"/>
	<path fill="#FEC13F" transform="scale(0.793204 0.793204)" d="M637.247 544.681C638.106 544.82 639.226 544.976 639.981 545.463C641.162 546.225 641.854 547.134 642.165 548.506C642.781 551.22 641.025 553.746 639.461 555.736C638.532 555.679 637.597 555.465 636.8 554.947C635.7 554.233 634.922 553.229 634.728 551.913C634.28 548.889 635.513 547 637.247 544.681Z"/>
	<path transform="scale(0.793204 0.793204)" d="M281.765 535.429C283.842 535.617 286.289 536.114 287.809 537.651C288.705 538.558 288.966 539.93 288.789 541.153C288.365 544.087 285.651 545.656 283.383 547.08C284.659 548.869 286.194 550.457 287.667 552.085L290.499 549.266L291.715 549.536L290.734 549.075L291.837 549.528C291.685 551.523 291.779 553.348 292.006 555.334C293.514 557.245 293.862 557.493 293.582 559.934C292.012 559.312 290.507 558.475 288.999 557.711C287.264 558.091 285.496 558.481 283.736 558.729C281.402 559.058 277.917 558.847 276.07 557.178C275.048 556.254 274.605 555.391 274.488 554.018C274.225 550.947 276.591 548.438 278.381 546.246C277.653 544.317 276.806 542.236 277.335 540.145C277.928 537.799 279.855 536.66 281.765 535.429Z"/>
	<path fill="#FEC13F" transform="scale(0.793204 0.793204)" d="M281.95 538.148C283.275 538.706 284.159 539.099 285.132 540.219C285.479 541.668 284.757 542.826 284.189 544.124C282.635 544.037 282.12 543.753 281.093 542.685C280.765 540.945 281.344 539.739 281.95 538.148Z"/>
	<path fill="#FEC13F" transform="scale(0.793204 0.793204)" d="M280.09 548.681C281.599 549.685 283.834 551.331 284.57 553.029C285.218 554.524 284.865 555.096 284.361 556.537C283.23 556.296 282.076 556.027 281 555.589C279.564 555.005 279.05 554.224 278.495 552.833C278.542 551.097 279.216 550.109 280.09 548.681Z"/>
	<path transform="scale(0.793204 0.793204)" d="M789.185 457.714C791.291 457.646 793.464 457.51 795.565 457.684C797.766 457.867 799.943 458.024 801.44 459.811C802.588 462.993 803.063 466.41 803.3 469.775C803.748 476.127 804.07 514.156 802.347 517.042C801.265 518.853 798.731 518.733 796.889 518.909C793.099 519.081 787.245 519.579 784.064 517.295C779.882 510.662 781.355 467.879 782.156 458.165L789.185 457.714Z"/>
	<path fill="#FEFEFE" transform="scale(0.793204 0.793204)" d="M784.056 460.512L798.49 460.514L798.442 513.488L784.452 513.476C783.69 495.847 784 478.154 784.056 460.512Z"/>
	<path transform="scale(0.793204 0.793204)" d="M478.337 458.228C481.744 458.157 486.069 457.703 489.188 459.226C489.495 459.717 489.904 460.263 489.977 460.855C490.677 466.529 478.36 485.081 475.651 491.26C474.309 494.322 473.506 497.394 473.183 500.734C472.781 504.895 474.833 512.664 472.379 515.968C471.362 517.337 469.093 517.919 467.493 518.204C463.933 518.838 456.626 519.036 453.847 516.486C451.003 513.876 452.426 503.529 452.58 499.875C453.111 486.098 439.66 475.162 435.733 462.406C435.289 460.963 435.201 460.048 435.932 458.724C441.598 457.679 448.667 458.462 454.485 458.497L462.506 473.487Q466.022 465.924 469.827 458.503C472.664 458.548 475.504 458.36 478.337 458.228Z"/>
	<path fill="#FEFEFE" transform="scale(0.793204 0.793204)" d="M471.432 460.509L485.759 460.515L474.365 481.691C472.542 485.27 470.462 488.749 468.496 492.253L468.474 513.494L454.966 513.397C455.078 507.922 455.501 502.171 454.835 496.734C453.329 484.429 443.181 471.46 437.362 460.517L452.619 460.511C455.494 467.346 458.499 474.033 462.199 480.475Q466.65 470.415 471.432 460.509Z"/>
	<path transform="scale(0.793204 0.793204)" d="M669.735 458.231C675.431 457.981 681.254 457.949 686.933 458.461C688.008 459.981 688.986 461.578 689.993 463.145C689.991 472.673 688.682 482.956 689.765 492.411C690.055 494.942 691.207 498.786 693.572 500.188C694.432 500.698 695.239 500.65 696.072 500.131C703.051 495.79 699.078 467.526 700.577 459.384C700.617 459.167 700.662 458.951 700.705 458.734C703.85 458.272 707.246 457.983 710.422 458C713.354 458.015 716.557 458.513 718.641 460.768C722.472 464.913 721.337 472.9 721.039 478.047C721.232 486.419 722.044 495.452 719.811 503.624C718.305 509.134 715.494 513.456 710.396 516.24C703.455 520.03 693.992 520.573 686.465 518.357C680.485 516.597 675.012 512.754 672.107 507.135C670.629 504.274 669.869 501.142 669.408 497.975C668.354 490.739 667.609 465.235 669.735 458.231Z"/>
	<path fill="#FEFEFE" transform="scale(0.793204 0.793204)" d="M702.367 460.516C707.057 460.368 711.765 460.458 716.457 460.469L716.447 472.922C716.623 483.133 718.601 500.238 710.576 508.157C705.845 512.824 698.563 514.167 692.134 513.977C686.098 513.797 679.805 511.929 675.658 507.311C667.879 498.648 670.762 472.081 671.095 460.511L685.153 460.518C684.858 469.777 682.765 492.18 688.238 499.323C689.46 500.917 691.165 501.926 693.178 502.099C695.3 502.281 697.401 501.68 698.951 500.188C704.975 494.388 702.509 468.957 702.367 460.516Z"/>
	<path transform="scale(0.793204 0.793204)" d="M187.192 458.538C191.835 458.229 198.309 457.121 202.747 458.464C204.208 458.906 204.56 459.262 205.232 460.596C205.112 467.452 192.497 482.946 188.268 489.277C194.569 499.159 202.45 507.294 207.83 517.888Q197.163 518.248 186.494 517.983L183.343 513.797C183.236 513.914 183.126 514.029 183.021 514.147C179.04 518.604 180.607 524.623 172.867 525.09C168.257 525.369 161.428 523.59 158.101 520.33C157.354 519.597 156.747 518.734 156.159 517.873C152.985 513.017 154.802 467.101 154.994 458.533C158.346 458.36 161.717 458.129 165.073 458.094C167.666 458.067 170.884 458.266 172.776 460.294C175.942 463.685 174.784 470.824 174.584 475.142C178.708 469.512 182.726 463.909 187.192 458.538Z"/>
	<path fill="#F59E28" transform="scale(0.793204 0.793204)" d="M174.752 501.23C177.743 505.324 180.513 509.591 183.343 513.797C183.236 513.914 183.126 514.029 183.021 514.147C179.04 518.604 180.607 524.623 172.867 525.09C168.257 525.369 161.428 523.59 158.101 520.33C157.354 519.597 156.747 518.734 156.159 517.873Q160.188 518.198 164.224 518.434C167.094 518.578 170.785 518.725 172.976 516.523C176.219 513.264 174.945 505.499 174.752 501.23Z"/>
	<path fill="#FEFEFE" transform="scale(0.793204 0.793204)" d="M188.173 460.513L202.223 460.51C196.618 470.083 188.992 478.254 183.389 487.882C187.301 492.947 191.024 498.188 194.83 503.335L202.206 513.811C197.199 514.029 192.15 513.949 187.137 513.995C181.948 506.093 176.32 498.428 171.023 490.59C170.489 498.399 170.643 506.276 170.626 514.102L157.437 513.982C156.503 496.255 157.005 478.357 157.08 460.605L170.729 460.603L170.97 482.91C177.424 476.174 182.616 468.001 188.173 460.513Z"/>
	<path transform="scale(0.793204 0.793204)" d="M382.494 458.469L394.719 458.438C401.743 465.714 407.713 473.86 414.577 481.246C414.49 473.649 414.02 466.093 414.225 458.489Q423.159 458.31 432.092 458.543C433.628 461.465 434.558 464.172 435.036 467.434C436.08 474.558 435.445 482.09 435.309 489.277Q435.066 503.595 435.021 517.915C430.69 518.196 426.524 518.195 422.186 517.965C414.989 510.97 409.246 502.617 402.525 495.177L402.501 517.654C395.947 518.405 390.105 518.561 383.729 516.679C381.857 508.062 382.871 498.201 382.796 489.394C382.709 479.088 382.166 468.774 382.494 458.469Z"/>
	<path fill="#FEFEFE" transform="scale(0.793204 0.793204)" d="M416.506 460.52L430.142 460.516L430.145 513.399C428.203 514.501 424.851 513.995 422.667 513.949C414.634 504.533 406.632 495.028 398.253 485.919L398.116 513.573L385.029 513.555Q385.213 487.13 384.731 460.709C387.6 460.574 390.497 460.607 393.37 460.572C401.434 469.691 408.547 479.833 417.45 488.175C416.445 479.003 416.515 469.733 416.506 460.52Z"/>
	<path transform="scale(0.793204 0.793204)" d="M269.501 458.5C277.559 458.216 285.822 457.669 293.858 458.465C300.422 459.115 306.897 461.297 311.099 466.682C314.177 470.628 316.04 476.815 315.378 481.824C314.629 487.494 311.086 491.21 306.763 494.529C310.823 502.159 315.575 509.34 319.292 517.169C319.412 518.619 319.706 519.51 318.639 520.739C316.126 523.635 308.188 522.953 304.678 522.668Q303.42 522.563 302.17 522.383C300.432 520.783 298.165 518.194 295.645 518.133C293.774 518.087 292.404 519.422 291.314 520.757C290.476 521.786 289.697 522.874 288.914 523.945C283.891 524.112 277.463 525.123 273.384 521.568C272.312 520.635 271.437 519.328 270.77 518.081C269.902 516.888 269.71 515.832 269.575 514.391C269.006 508.302 269.578 501.892 269.591 495.759L269.501 458.5Z"/>
	<path fill="#F59E28" transform="scale(0.793204 0.793204)" d="M289.556 501.814C292.759 507.077 295.366 512.703 298.612 517.975C305.326 518.372 312.841 519.407 319.292 517.169C319.412 518.619 319.706 519.51 318.639 520.739C316.126 523.635 308.188 522.953 304.678 522.668Q303.42 522.563 302.17 522.383C300.432 520.783 298.165 518.194 295.645 518.133C293.774 518.087 292.404 519.422 291.314 520.757C290.476 521.786 289.697 522.874 288.914 523.945C283.891 524.112 277.463 525.123 273.384 521.568C272.312 520.635 271.437 519.328 270.77 518.081L289.514 517.984L289.556 501.814Z"/>
	<path fill="#FEFEFE" transform="scale(0.793204 0.793204)" d="M271.926 460.594C280.206 460.36 289.181 459.543 297.343 461.196C302.019 462.142 306.531 464.268 309.144 468.427C311.579 472.305 312.045 477.726 310.806 482.084C309.33 487.279 305.698 490.022 301.198 492.464Q308.524 502.861 314.765 513.944L302.875 514.123C294.122 513.971 293.946 498.247 288.343 494.21C287.624 493.693 287.548 493.873 286.735 493.971C283.825 498.141 285.306 508.888 285.493 513.965L271.943 514.106L271.926 460.594Z"/>
	<path transform="scale(0.793204 0.793204)" d="M285.637 470.533C288.437 470.482 291.251 470.706 293.838 471.874C295.624 472.68 297.175 473.944 297.761 475.878C298.493 478.293 297.393 480.438 296.324 482.549C292.814 483.901 289.231 483.969 285.526 484.047L285.637 470.533Z"/>
	<path fill="#FEC13F" transform="scale(0.793204 0.793204)" d="M289.331 475.371C291.25 475.384 292.943 475.327 294.397 476.777C294.942 478.399 294.56 479.352 294.065 480.902L293.622 480.965C291.668 481.227 290.455 481.419 288.831 480.175C288.309 478.453 288.871 477.037 289.331 475.371Z"/>
	<path transform="scale(0.793204 0.793204)" d="M732.719 458.218Q733.44 458.182 734.161 458.16C746.552 457.827 760.554 457.314 770.054 466.69C775.928 472.488 778.675 480.762 778.571 488.906C778.447 498.614 774.235 506.184 767.381 512.788C756.137 519.978 742.963 518.64 730.207 518.43L726.066 514.615Q725.847 486.579 726.062 458.543L732.719 458.218Z"/>
	<path fill="#FEFEFE" transform="scale(0.793204 0.793204)" d="M737.4 460.229C742.108 460.008 747.047 460.04 751.719 460.705C758.476 461.668 764.95 464.274 769.074 469.987C773.327 475.88 774.642 484.19 773.401 491.289C772.103 498.714 767.981 504.821 761.824 509.063C751.951 514.899 739.476 513.6 728.508 513.389L728.6 460.538L737.4 460.229Z"/>
	<path transform="scale(0.793204 0.793204)" d="M742.599 473.263L753.163 473.56C756.028 475.851 758.078 478.354 759.024 481.971C760.444 487.4 758.553 492.368 755.915 497.038C751.565 500.597 747.908 500.715 742.501 500.818L742.599 473.263Z"/>
	<path fill="#FEC13F" transform="scale(0.793204 0.793204)" d="M747.756 477.613C749.718 477.635 751.651 477.625 753.403 478.627C755.179 479.642 756.416 481.325 756.94 483.295C758.131 487.773 756.138 492.619 753.818 496.371C751.625 497.778 749.501 498.454 747.036 499.181C747.028 495.872 746.194 479.684 747.756 477.613Z"/>
	<path transform="scale(0.793204 0.793204)" d="M341.231 457.6C348.794 456.818 356.631 457.525 363.245 461.563C370.018 465.698 374.698 472.608 376.628 480.245C378.767 488.702 377.577 498.444 372.914 505.881C368.242 513.331 361.687 516.494 353.454 518.367C345.718 519.587 337.622 518.653 330.851 514.5C323.581 510.041 318.584 502.515 316.812 494.224C315.033 485.903 316.288 476.534 321.133 469.417C326.121 462.091 332.884 459.271 341.231 457.6Z"/>
	<path fill="#FEFEFE" transform="scale(0.793204 0.793204)" d="M342.26 459.573C349.127 459.001 355.999 459.663 361.899 463.542C367.653 467.325 371.115 473.444 372.428 480.109C374.008 488.126 372.701 497.099 367.989 503.882C363.367 510.534 356.998 512.975 349.374 514.379C342.645 514.735 336.461 514.021 330.611 510.275C324.723 506.504 320.743 500.555 319.219 493.771C317.515 486.189 318.757 477.691 323.041 471.149C327.704 464.028 334.371 461.371 342.26 459.573Z"/>
	<path transform="scale(0.793204 0.793204)" d="M345.059 471.556C347.448 471.54 350.061 472.097 352.17 473.234C355.641 475.106 357.984 478.353 359.039 482.115C360.288 486.567 359.882 491.743 357.49 495.752C354.994 499.935 351.641 501.432 347.121 502.494C344.873 502.419 342.524 501.929 340.517 500.891C336.962 499.054 334.541 495.782 333.383 491.993C332.023 487.541 332.313 482.394 334.718 478.342C337.223 474.123 340.541 472.705 345.059 471.556Z"/>
	<path fill="#F59E28" transform="scale(0.793204 0.793204)" d="M339.283 496.606C338.978 496.057 338.677 495.507 338.415 494.936C336.855 491.542 336.781 487.051 338.157 483.589C339.294 480.73 341.462 478.286 344.323 477.087C346.476 476.184 348.904 476.12 351.052 477.076C354.316 478.529 355.828 481.36 356.941 484.578C353.81 483.54 350.458 483.438 347.253 482.675C342.739 486.254 340.158 490.921 339.283 496.606Z"/>
	<path fill="#FEC13F" transform="scale(0.793204 0.793204)" d="M347.253 482.675C350.458 483.438 353.81 483.54 356.941 484.578C357.019 489.219 356.657 493.501 353.358 497.143C351.83 498.83 349.778 500.059 347.456 500.107C344.415 500.169 341.517 498.53 339.283 496.606C340.158 490.921 342.739 486.254 347.253 482.675Z"/>
	<path transform="scale(0.793204 0.793204)" d="M228.95 457.628C237.397 457.098 245.246 457.768 252.521 462.503Q253.116 462.888 253.691 463.303Q254.265 463.717 254.819 464.16Q255.372 464.602 255.903 465.072Q256.434 465.541 256.941 466.036Q257.448 466.532 257.93 467.052Q258.411 467.571 258.867 468.114Q259.322 468.658 259.75 469.223Q260.177 469.788 260.577 470.373Q260.976 470.959 261.345 471.563Q261.715 472.168 262.054 472.79Q262.393 473.413 262.701 474.051Q263.009 474.689 263.284 475.342Q263.56 475.995 263.803 476.661Q264.046 477.327 264.256 478.003Q264.465 478.68 264.641 479.367Q264.817 480.054 264.958 480.748C266.778 489.378 265.015 499.104 260.073 506.433C255.527 513.175 248.909 516.912 241.095 518.41C232.923 519.192 225.235 519.297 217.995 514.773C210.932 510.36 206.487 502.885 204.672 494.884C202.779 486.539 203.549 477.472 208.309 470.174C213.204 462.671 220.494 459.247 228.95 457.628Z"/>
	<path fill="#FEFEFE" transform="scale(0.793204 0.793204)" d="M230.101 459.627C237.256 459.49 244.048 459.979 250.224 464.077C255.64 467.671 259.157 473.367 260.398 479.708C261.926 487.517 260.505 496.311 256.012 502.943C251.527 509.563 245.191 512.441 237.621 513.989C230.705 514.392 224.011 513.93 217.939 510.191C211.996 506.532 208.071 500.607 206.605 493.823C204.947 486.152 206.076 477.749 210.49 471.168C215.198 464.151 222.122 461.077 230.101 459.627Z"/>
	<path transform="scale(0.793204 0.793204)" d="M232.371 472.121C235.113 472.169 237.797 472.342 240.217 473.742C243.527 475.656 245.562 478.766 246.408 482.456C247.444 486.973 246.743 492.288 244.108 496.156C241.555 499.903 238.594 501.067 234.329 501.968C231.53 501.686 229.122 501.34 226.713 499.792C223.344 497.628 221.178 494.126 220.419 490.226C219.597 486.004 220.284 481.265 222.778 477.698C225.279 474.123 228.229 472.936 232.371 472.121Z"/>
	<path fill="#F59E28" transform="scale(0.793204 0.793204)" d="M225.564 495.322C224.686 492.266 224.172 489.273 224.982 486.139C225.866 482.718 227.984 479.526 231.083 477.74C233 476.635 235.208 476.117 237.366 476.782C240.493 477.746 242.282 479.885 243.809 482.647C239.107 482.28 235.593 481.994 231.793 485.357C229.061 487.775 226.892 491.949 225.564 495.322Z"/>
	<path fill="#FEC13F" transform="scale(0.793204 0.793204)" d="M225.564 495.322C226.892 491.949 229.061 487.775 231.793 485.357C235.593 481.994 239.107 482.28 243.809 482.647C244.679 487.034 244.56 491.331 242.121 495.226C240.724 497.457 238.575 499.157 235.973 499.703C233.282 500.267 230.31 499.186 228.096 497.682C227.132 497.027 226.343 496.178 225.564 495.322Z"/>
	<path transform="scale(0.793204 0.793204)" d="M511.324 457.617C519.757 457.061 527.15 457.606 534.401 462.458Q535.057 462.902 535.69 463.377Q536.324 463.852 536.933 464.358Q537.542 464.864 538.126 465.399Q538.71 465.934 539.266 466.498Q539.823 467.061 540.352 467.651Q540.88 468.24 541.379 468.855Q541.878 469.47 542.346 470.109Q542.814 470.748 543.25 471.409Q543.686 472.07 544.089 472.752Q544.492 473.433 544.861 474.134Q545.23 474.834 545.565 475.552Q545.899 476.27 546.198 477.004Q546.496 477.737 546.759 478.484Q547.021 479.231 547.246 479.991Q547.472 480.75 547.659 481.519Q547.847 482.288 547.997 483.066C549.62 491.259 548.22 500.153 543.417 507.077C538.408 514.298 531.377 517.31 523.112 518.943C515.728 520.284 506.948 518.41 500.648 514.34C493.237 509.554 488.082 501.332 486.447 492.718C484.911 484.633 486.432 475.75 491.242 468.986C496.253 461.939 503.158 459.061 511.324 457.617Z"/>
	<path fill="#FEFEFE" transform="scale(0.793204 0.793204)" d="M510.605 459.605C517.713 459.286 524.124 459.307 530.58 462.805C536.779 466.165 540.99 471.948 542.831 478.695C544.886 486.226 544.022 494.954 539.965 501.687C535.884 508.459 529.809 511.739 522.387 513.585C515.39 514.729 508.015 514.252 501.737 510.716Q501.151 510.385 500.583 510.025Q500.014 509.665 499.465 509.276Q498.915 508.887 498.386 508.471Q497.857 508.055 497.35 507.613Q496.843 507.17 496.359 506.703Q495.875 506.236 495.415 505.744Q494.956 505.253 494.521 504.738Q494.087 504.224 493.68 503.689Q493.272 503.153 492.892 502.598Q492.512 502.042 492.161 501.468Q491.81 500.894 491.489 500.303Q491.167 499.712 490.876 499.105Q490.585 498.498 490.325 497.878Q490.065 497.257 489.836 496.624Q489.608 495.991 489.413 495.347Q489.217 494.703 489.054 494.05C487.142 486.584 488.108 477.976 492.218 471.403C496.537 464.494 503.012 461.497 510.605 459.605Z"/>
	<path transform="scale(0.793204 0.793204)" d="M512.542 472.129C515.371 471.961 518.033 471.859 520.747 472.841C524.483 474.192 527.468 476.856 529.11 480.488Q529.427 481.197 529.67 481.935Q529.913 482.673 530.079 483.432Q530.245 484.191 530.333 484.962Q530.421 485.734 530.43 486.511Q530.439 487.288 530.368 488.061Q530.297 488.835 530.148 489.597Q529.999 490.36 529.772 491.103Q529.546 491.846 529.245 492.562C527.31 497.162 523.811 499.4 519.452 501.3C516.639 501.56 513.726 501.486 511.058 500.48Q510.385 500.231 509.74 499.915Q509.096 499.599 508.487 499.22Q507.878 498.841 507.31 498.402Q506.742 497.963 506.221 497.469Q505.701 496.975 505.233 496.43Q504.765 495.886 504.355 495.297Q503.944 494.709 503.595 494.081Q503.247 493.454 502.963 492.795C501.259 488.871 501.33 484.166 503.076 480.268C505.027 475.911 508.226 473.785 512.542 472.129Z"/>
	<path fill="#FEC13F" transform="scale(0.793204 0.793204)" d="M515.576 477.127C517.524 477.033 519.46 476.899 521.354 477.465C523.811 478.2 526.05 479.867 527.161 482.22C528.442 484.935 528.432 488.186 527.455 490.993C525.91 495.429 523.028 497.481 518.974 499.43C516.809 499.444 514.699 499.496 512.673 498.628C510.202 497.57 508.127 495.556 507.148 493.036Q506.926 492.46 506.765 491.864Q506.605 491.267 506.506 490.658Q506.408 490.048 506.374 489.432Q506.339 488.815 506.369 488.198Q506.399 487.582 506.492 486.971Q506.586 486.361 506.742 485.764Q506.898 485.166 507.116 484.588Q507.333 484.01 507.609 483.458C509.379 479.897 511.961 478.412 515.576 477.127Z"/>
	<path transform="scale(0.793204 0.793204)" d="M580.436 492.07C575.421 487.495 571.186 482.132 571.02 475.001C570.916 470.526 572.687 466.356 575.86 463.217C580.398 458.73 586.988 456.97 593.238 457.182C601.418 457.459 608.424 461.337 614.873 466.068C614.955 463.803 614.897 461.612 615.696 459.462C619.04 457.077 655.08 457.87 660.554 458.706C661.883 458.909 662.846 459.228 663.59 460.448C665.191 463.07 665.647 471.061 664.588 474.011C664.038 475.542 662.999 476.648 661.481 477.227C658.115 478.509 653.587 477.738 650.031 477.476C649.94 484.481 649.76 491.509 649.889 498.513C650.002 504.596 650.863 511.209 649.928 517.207C645.63 517.916 635.2 519.78 631.337 517.485C629.748 516.541 629.443 514.39 629.182 512.701C627.425 501.362 629.052 488.57 629 477.091L616.706 477.017C615.934 474.012 615.115 471.013 614.477 467.976C613.103 471.401 611.489 477.57 607.785 479.01C602.708 480.984 595.12 473.439 591.495 475.995C591.915 477.211 592.855 477.666 593.977 478.223C602.567 482.486 611.338 484.234 615.436 494.254Q615.77 495.07 616.023 495.915Q616.276 496.76 616.447 497.626Q616.617 498.491 616.703 499.369Q616.79 500.247 616.79 501.129Q616.791 502.011 616.707 502.889Q616.623 503.767 616.454 504.633Q616.285 505.499 616.034 506.344Q615.782 507.19 615.45 508.007C613.549 512.596 609.756 515.931 605.165 517.698C597.513 520.645 588.174 520.126 580.778 516.687C575.43 514.201 571.889 510.539 568.862 505.586C572.018 501.104 574.992 497.05 579.325 493.645C581.209 495.242 583.089 496.837 585.223 498.098C587.783 499.611 590.198 500.247 593.099 499.504L593.363 498.814C590.646 495.612 584.326 493.717 580.436 492.07Z"/>
	<path fill="#FEFEFE" transform="scale(0.793204 0.793204)" d="M617.515 460.518L660.016 460.615L660.031 472.569L645.449 472.579L645.418 499.102L645.41 513.562L631.455 513.542C631.584 500.423 632.755 486.307 630.752 473.327C626.357 472.875 621.984 472.923 617.573 472.941L617.515 460.518Z"/>
	<path fill="#FEFEFE" transform="scale(0.793204 0.793204)" d="M588.382 459.62C597.502 458.938 603.237 461.349 611.049 465.659C609.551 469.321 607.473 472.379 605.047 475.474C600.291 473.424 595.014 470.784 589.69 471.448C588.151 471.64 587.41 472.01 586.458 473.219C586.448 473.73 586.406 474.189 586.562 474.695C588.301 480.349 600.997 482.78 605.769 485.884C608.897 487.92 611.325 490.77 611.928 494.542C612.615 498.831 611.173 504.651 608.523 508.098C605.089 512.566 599.881 513.35 594.653 513.941C585.065 514.004 578.458 511.733 571.36 505.069L579.426 496.298C581.627 498.243 583.625 499.756 586.335 500.923C589.061 502.096 592.355 502.648 595.17 501.417C596.521 500.826 597.377 500.159 597.9 498.786C596.332 493.941 586.517 491.434 582.28 489.022C578.195 486.696 574.606 483.326 573.463 478.611C572.519 474.714 573.566 470.363 575.691 467.02C578.636 462.388 583.281 460.712 588.382 459.62Z"/>
</svg>
