<svg width="60" height="60" viewBox="0 0 60 60" xmlns="http://www.w3.org/2000/svg">
  <defs>
    <linearGradient id="iconGrad" x1="0%" y1="0%" x2="100%" y2="100%">
      <stop offset="0%" style="stop-color:#4f54ff" />
      <stop offset="100%" style="stop-color:#ff5c4a" />
    </linearGradient>
    
    <linearGradient id="bgGrad" x1="0%" y1="0%" x2="100%" y2="100%">
      <stop offset="0%" style="stop-color:#4f54ff;stop-opacity:0.1" />
      <stop offset="100%" style="stop-color:#ff5c4a;stop-opacity:0.1" />
    </linearGradient>
  </defs>
  
  <!-- Background -->
  <circle cx="30" cy="30" r="28" fill="url(#bgGrad)" stroke="url(#iconGrad)" stroke-width="2" opacity="0.3"/>
  
  <!-- Main icon -->
  <g transform="translate(5, 5)">
    <!-- Brain with AI circuits -->
    <path d="M25 45 C18 45, 14 41, 14 33 C14 25, 18 21, 25 21 C28 18, 35 18, 38 21 C45 21, 49 25, 49 33 C49 41, 45 45, 38 45 C35 48, 28 48, 25 45 Z" 
          fill="none" stroke="url(#iconGrad)" stroke-width="2.5"/>
    
    <!-- Neural network nodes -->
    <circle cx="23" cy="28" r="2.5" fill="url(#iconGrad)"/>
    <circle cx="31.5" cy="32" r="2" fill="url(#iconGrad)" opacity="0.8"/>
    <circle cx="40" cy="28" r="2.5" fill="url(#iconGrad)"/>
    <circle cx="31.5" cy="22" r="1.5" fill="url(#iconGrad)" opacity="0.6"/>
    
    <!-- Connections -->
    <line x1="23" y1="28" x2="31.5" y2="32" stroke="url(#iconGrad)" stroke-width="1.5" opacity="0.7"/>
    <line x1="31.5" y1="32" x2="40" y2="28" stroke="url(#iconGrad)" stroke-width="1.5" opacity="0.7"/>
    <line x1="31.5" y1="22" x2="31.5" y2="30" stroke="url(#iconGrad)" stroke-width="1.5" opacity="0.7"/>
    <line x1="25" y1="30" x2="29" y2="22" stroke="url(#iconGrad)" stroke-width="1.5" opacity="0.5"/>
    <line x1="38" y1="30" x2="34" y2="22" stroke="url(#iconGrad)" stroke-width="1.5" opacity="0.5"/>
    
    <!-- Speed indicators -->
    <path d="M31.5 12 L29 18 L33 18 L31.5 24" stroke="url(#iconGrad)" stroke-width="2" fill="none" opacity="0.8"/>
    <circle cx="45" cy="15" r="1" fill="#ff5c4a" opacity="0.8"/>
    <circle cx="48" cy="20" r="0.8" fill="#4f54ff" opacity="0.6"/>
  </g>
</svg>